<svg width="100" height="132" viewBox="0 0 100 132" fill="none" xmlns="http://www.w3.org/2000/svg">
<path d="M97.3046 74.5013C95.8221 74.5013 94.6092 75.7143 94.6092 77.1968V126.146H5.39084V77.1968C5.39084 75.7143 4.1779 74.5013 2.69542 74.5013C1.21294 74.5013 0 75.7143 0 77.1968V128.841C0 130.323 1.21294 131.536 2.69542 131.536H97.3046C98.7871 131.536 100 130.323 100 128.841V77.1968C100 75.7143 98.7871 74.5013 97.3046 74.5013Z" fill="#4A8933"/>
<path d="M14.124 21.0782L27.9515 27.3315V28.221V36.1725V41.6712C27.9515 41.8868 27.9784 42.1024 28.0323 42.2911C22.5067 51.9946 24.7709 64.1509 33.7736 71.4825C38.4097 75.3369 44.2588 77.2776 50.0809 77.2776C55.903 77.2776 61.752 75.3369 66.3881 71.4825C70.9434 67.6819 73.9353 62.4798 74.7709 56.8194C75.5256 51.8059 74.5553 46.7655 72.0216 42.372C72.0755 42.1563 72.1024 41.9138 72.1024 41.6712V36.1725V28.221V27.3315L77.9515 24.69V30.8895V33.531C77.9515 35.0135 79.1644 36.2264 80.6469 36.2264C82.1294 36.2264 83.3423 35.0135 83.3423 33.531V30.8895V22.7224V22.2642L85.9299 21.1051C86.9003 20.6738 87.5202 19.7035 87.5202 18.6523C87.4933 17.5741 86.8733 16.6038 85.9299 16.1725L51.1321 0.242588C50.4313 -0.0808625 49.5957 -0.0808625 48.8949 0.242588L14.097 16.1725C13.1267 16.6038 12.5337 17.5741 12.5337 18.6253C12.5337 19.6766 13.1536 20.6469 14.124 21.0782ZM62.8841 67.3315C55.5526 73.4501 44.5013 73.4501 37.1698 67.3315L37.1429 67.3046C30.2695 61.7251 28.4906 52.4259 32.6415 45.0404L49.2722 49.7574C49.5148 49.8383 49.7574 49.8652 50 49.8652C50.2426 49.8652 50.4852 49.8383 50.7278 49.7574L67.3046 45.0404C71.5633 52.4259 69.8383 61.5633 62.8841 67.3315ZM33.3154 39.6496V36.1725V29.7574L48.8949 36.7924C49.2453 36.9542 49.6226 37.035 50 37.035C50.3774 37.035 50.7547 36.9542 51.1051 36.7924L66.6846 29.7574V36.1725V39.6496L50 44.3935L33.3154 39.6496ZM50 5.66037L78.2749 18.5984L50 31.3747L21.7251 18.5984L50 5.66037Z" fill="#4A8933"/>
</svg>
