<svg width="44" height="44" viewBox="0 0 44 44" fill="none" xmlns="http://www.w3.org/2000/svg">
<path d="M7.74376 3.72535L21.9998 17.9814L36.1971 3.78402C36.6999 3.24898 37.3989 2.94186 38.1331 2.93335C39.7532 2.93335 41.0664 4.2466 41.0664 5.86668C41.0802 6.59356 40.7936 7.29404 40.2744 7.80268L25.9304 22L40.2744 36.344C40.7578 36.8169 41.0415 37.4575 41.0664 38.1334C41.0664 39.7534 39.7532 41.0667 38.1331 41.0667C37.3772 41.0981 36.643 40.8106 36.1091 40.2747L21.9998 26.0187L7.77309 40.2454C7.27237 40.7625 6.58597 41.0582 5.86643 41.0667C4.24635 41.0667 2.93309 39.7534 2.93309 38.1334C2.91931 37.4065 3.20589 36.706 3.72509 36.1974L18.0691 22L3.72509 7.65602C3.24168 7.18316 2.95803 6.54252 2.93309 5.86668C2.93309 4.2466 4.24635 2.93335 5.86643 2.93335C6.5716 2.94186 7.24539 3.2261 7.74376 3.72535Z" fill="black"/>
</svg>
