<svg width="53" height="100" viewBox="0 0 53 100" fill="none" xmlns="http://www.w3.org/2000/svg">
<path d="M43.5476 62.8454C41.4234 60.6997 41.9783 59.0959 43.4358 55.6738C44.402 53.4054 45.4969 50.8346 45.3074 47.7608C45.0623 43.7882 41.883 36.5443 31.8054 35.8621V17.0484H36.5533C37.6112 17.0484 38.4684 16.1913 38.4684 15.1334V4.55071C38.4684 3.49283 37.6112 2.63564 36.5533 2.63564H31.8054V1.91507C31.8054 0.85744 30.9483 0 29.8904 0H22.836C21.7782 0 20.921 0.85744 20.921 1.91507V2.63564H16.1731C15.1155 2.63564 14.2581 3.49283 14.2581 4.55071V15.1334C14.2581 16.1913 15.1155 17.0484 16.1731 17.0484H20.921V35.8585C10.8426 36.5313 7.66334 43.7882 7.41897 47.7608C7.22951 50.8343 8.32442 53.4051 9.29038 55.6736C10.7479 59.0957 11.303 60.6995 9.17879 62.8451C4.53437 67.5376 0 72.7802 0 80.6864C0 86.8721 2.45129 91.8842 7.08856 95.1817C11.5846 98.3786 18.0698 99.9997 26.3631 99.9997C34.6563 99.9997 41.141 98.3786 45.6373 95.1817C50.2746 91.8844 52.7259 86.8721 52.7259 80.6864C52.7262 72.7802 48.1918 67.5376 43.5476 62.8454ZM31.8054 6.46578H34.6382V13.2183H31.8054V6.46578ZM26.3633 62.2522C28.2774 62.2522 29.8347 63.8096 29.8347 65.7239C29.8347 67.6379 28.2774 69.195 26.3633 69.195C24.4493 69.195 22.892 67.6379 22.892 65.7239C22.892 63.8096 24.4493 62.2522 26.3633 62.2522ZM27.9753 3.83014V58.6036C27.4565 58.4862 26.9172 58.4221 26.3631 58.4221C25.809 58.4221 25.27 58.4862 24.7511 58.6036V3.83014H27.9753ZM18.0885 13.2186V6.46578H20.9212V13.2183H18.0885V13.2186ZM26.3633 96.1699C16.0838 96.1699 3.83039 93.4837 3.83039 80.6867C3.83039 74.2288 7.64802 69.8369 11.901 65.54C15.9244 61.4752 14.2001 57.4265 12.8144 54.1729C11.9756 52.2032 11.1079 50.1666 11.242 47.9962C11.2621 47.6689 11.8162 40.4304 20.921 39.696V60.8626C19.7658 62.1549 19.0618 63.8581 19.0618 65.7236C19.0618 69.7496 22.3371 73.0249 26.3633 73.0249C30.3896 73.0249 33.6649 69.7496 33.6649 65.7236C33.6649 63.8581 32.9609 62.1547 31.8057 60.8626V39.6948C40.9043 40.4286 41.4648 47.6686 41.485 47.9965C41.6185 50.1666 40.7511 52.2035 39.9123 54.1729C38.5266 57.4265 36.8017 61.4755 40.8257 65.5403C45.0784 69.8369 48.8963 74.2288 48.8963 80.6869C48.896 93.4837 36.6427 96.1699 26.3633 96.1699Z" fill="#745822"/>
<path d="M33.3086 83.4252H19.4178C18.3599 83.4252 17.5027 82.568 17.5027 81.5102C17.5027 80.4523 18.3599 79.5951 19.4178 79.5951H33.3086C34.3663 79.5951 35.2237 80.4523 35.2237 81.5102C35.2237 82.5678 34.3665 83.4252 33.3086 83.4252Z" fill="#745822"/>
</svg>
