<svg width="112" height="124" viewBox="0 0 112 124" fill="none" xmlns="http://www.w3.org/2000/svg">
<path d="M2.5 91.5273V32.4727L55.9344 2.85828L109.369 32.4727V91.5273L55.9344 121.142L2.5 91.5273Z" fill="#F5FFFD" stroke="#D34A47" stroke-width="5"/>
<path d="M65.5474 98.6227L66.2953 86.1607L68.3604 82.6355C68.3604 82.6355 63.6602 84.5582 55.7915 84.5582C47.9226 84.5582 43.2937 82.6711 43.2937 82.6711L45.6081 86.5165L46.4268 98.6227C46.4268 99.9206 50.707 100.973 55.9872 100.973C61.2671 100.973 65.5474 99.9206 65.5474 98.6227Z" fill="#D34A47"/>
<path d="M63.1882 40.4266L64.758 34.2218L73.4511 25.0746L71.1599 23.123L61.9564 32.8671L60.1338 40.2803C58.8131 40.2356 57.4349 40.2118 56.017 40.2118C46.324 40.2118 38.4663 41.3165 38.4663 42.6789C38.4663 44.0414 46.324 45.1459 56.017 45.1459C65.7098 45.1459 73.5674 44.0414 73.5674 42.6789C73.5674 41.6756 69.3058 40.8121 63.1882 40.4266Z" fill="#D34A47"/>
<path d="M62.2751 43.9013C62.2751 43.9013 61.9351 43.9775 60.935 43.9818C59.9347 43.9859 59.2244 43.9753 58.9415 43.7176C58.8654 43.6484 58.8238 43.511 58.8242 43.418C58.825 43.2409 58.9507 43.1366 59.1109 43.0712L59.2623 43.3088C59.1964 43.3316 59.1588 43.3584 59.1587 43.3871C59.1581 43.5216 60.1815 43.6137 60.9643 43.6037C61.7472 43.5941 62.6931 43.5296 62.6939 43.397C62.6939 43.3569 62.6224 43.3192 62.4979 43.2894L62.6487 43.0535C62.8516 43.1164 63.0286 43.2381 63.0282 43.4487C63.0263 43.8067 62.5707 43.8612 62.2751 43.9013Z" fill="white"/>
<path d="M73.434 25.0925C73.6525 24.84 73.3208 24.1943 72.6931 23.6503C72.0651 23.1067 71.3788 22.8705 71.1598 23.1229C70.9411 23.3754 71.273 24.0212 71.901 24.5648C72.5287 25.1086 73.2153 25.3451 73.434 25.0925Z" fill="#D34A47"/>
<path d="M65.1291 68.1827C64.9231 66.2004 69.4649 63.3296 68.2993 63.2377C65.7901 63.3811 64.5412 66.1783 63.2788 69.1078C62.8161 70.1815 61.2331 74.7598 60.1949 74.1961C59.1569 73.6328 61.5406 69.868 62.2087 67.6321C61.4378 68.1974 58.6106 70.394 57.882 68.3369C56.7106 69.3317 54.2076 69.8707 54.49 67.2574C53.8668 68.3613 52.4682 69.9024 50.7894 69.262C48.5847 68.4212 52.0669 61.3983 52.9327 61.7527C53.7987 62.1068 52.758 63.7067 52.4854 64.3279C51.8859 65.6951 51.1934 67.4139 51.6561 67.7657C52.4486 68.3685 54.6053 65.4854 54.6533 65.422C55.0567 64.8891 56.2058 61.4026 57.1321 61.803C58.0583 62.2033 54.8218 66.8065 56.0319 67.7201C56.276 67.9045 57.2746 67.6064 57.882 66.9492C58.275 66.524 58.1399 65.5824 59.45 62.458C60.7602 59.3337 61.9278 55.4428 62.8263 55.7392C63.7248 56.0355 62.9843 58.0325 62.6619 58.7769C61.1493 62.271 58.5337 68.0434 59.7672 67.6064C61.0008 67.1695 61.6431 67.1439 62.851 65.7304C64.0589 64.3169 64.0032 61.9886 64.8083 62.0381C65.6137 62.0877 65.4785 62.8342 65.2832 63.4026C66.0756 62.4959 69.0393 60.5861 69.7548 62.4775C70.6024 64.7168 65.5146 67.9513 66.7831 67.7864C68.0199 67.6255 70.0237 66.3564 70.8792 65.2026L73.2341 44.0315C73.2341 44.0315 70.8645 45.9925 55.789 45.9925C40.7133 45.9925 38.5889 44.0723 38.5889 44.0723L40.5937 63.3964C41.6579 60.3719 44.1849 54.2543 48.1681 54.4597C49.98 54.5531 52.3989 58.042 50.3269 58.1602C49.4499 58.2101 49.3609 56.4187 48.3223 56.1557C47.5729 55.9658 46.5296 56.575 45.8553 57.2351C44.5105 58.5512 41.6183 63.7437 42.0005 66.3325C42.4874 69.6329 46.5548 65.1856 47.243 63.8653C47.7277 62.9352 48.0551 60.1796 49.1151 60.4687C50.1753 60.7578 49.0227 63.6016 48.2543 66.116C47.391 68.9393 46.9372 71.9175 45.8553 71.5749C44.7732 71.2325 46.5358 67.5878 46.472 66.9492C45.4549 67.8875 43.5813 70.2631 41.1842 69.0873L42.4293 81.0874C42.4293 81.0874 45.7385 83.7021 55.7072 83.7021C65.676 83.7021 69.1077 81.1282 69.1077 81.1282L70.6538 67.2292C69.3888 68.4609 65.3855 70.6482 65.1291 68.1827Z" fill="#D34A47"/>
</svg>
