<svg width="112" height="124" viewBox="0 0 112 124" fill="none" xmlns="http://www.w3.org/2000/svg">
<path d="M2.5 91.5273V32.4727L55.9344 2.85828L109.369 32.4727V91.5273L55.9344 121.142L2.5 91.5273Z" fill="white" stroke="black" stroke-width="5"/>
<path d="M33.3264 48.7286C28.7228 55.3391 29.298 63.9288 32.8097 70.9456C32.8942 71.1227 32.9787 71.2836 33.0632 71.4444C33.1135 71.5549 33.1737 71.6638 33.2322 71.7662C33.2582 71.8247 33.3004 71.8929 33.3345 71.9433C33.393 72.0619 33.4532 72.1627 33.5117 72.2732L33.8497 72.8484C33.9082 72.9589 33.9764 73.0597 34.0447 73.1621C34.1633 73.3652 34.3063 73.5683 34.4249 73.7714C34.4834 73.8559 34.5354 73.9404 34.5939 74.0249C34.8052 74.3548 35.0343 74.6766 35.2715 74.9902C35.4405 75.2193 35.6095 75.4468 35.7883 75.6759C35.8468 75.7523 35.915 75.8368 35.9752 75.9213L36.4578 76.5047C36.5163 76.5729 36.5683 76.6493 36.6349 76.7159C36.8462 76.9694 37.0753 77.2246 37.2947 77.4699C37.2947 77.4781 37.3028 77.4781 37.3028 77.4862C37.5823 77.8339 37.8862 78.1541 38.2258 78.4433C38.4029 78.6204 38.5735 78.7992 38.7588 78.9682L38.9782 79.1794C39.2154 79.4086 39.4527 79.6279 39.7062 79.8473C39.7143 79.8473 39.7143 79.8473 39.7224 79.8554L39.841 79.9578C40.0604 80.1528 40.2895 80.3478 40.5187 80.5249L40.79 80.7541C40.9672 80.8987 41.1622 81.0417 41.349 81.1863L41.6448 81.4154C41.8479 81.5682 42.0592 81.7112 42.2623 81.8639C42.3387 81.9143 42.415 81.9744 42.4995 82.0167L42.558 82.0671L43.1674 82.4733L43.429 82.6423C43.7427 82.8454 44.0644 83.0404 44.3764 83.2354C44.469 83.2777 44.5535 83.3281 44.638 83.3801C44.8753 83.5149 45.1207 83.6514 45.3579 83.7782C45.4847 83.8546 45.6195 83.9131 45.756 83.9813C45.9169 84.0739 46.0859 84.1584 46.2549 84.2527C46.2972 84.2608 46.3394 84.2787 46.3817 84.3031C46.4499 84.3372 46.5165 84.3713 46.5848 84.4054C46.8464 84.5322 47.1178 84.6589 47.3973 84.7776C47.4477 84.8036 47.5078 84.8198 47.5663 84.8539C47.8799 84.9888 48.1838 85.1253 48.5137 85.2521C48.5819 85.2683 48.6583 85.3106 48.733 85.3366C49.0288 85.4471 49.3343 85.5559 49.63 85.6664L49.7324 85.7006C50.0704 85.8192 50.3922 85.9199 50.7318 86.0304C50.8082 86.0467 50.8927 86.0808 50.969 86.0987C51.3168 86.2092 51.6467 86.3278 51.9928 86.3944C74.226 90.4488 80.6838 73.0304 80.6838 73.0304C75.2579 80.0976 65.6265 81.9598 56.5038 79.8863C56.1658 79.8099 55.8359 79.6994 55.4882 79.5987C55.0819 79.4801 54.6675 79.3452 54.2613 79.2087L54.1264 79.1583C53.8388 79.0559 53.5512 78.9471 53.2635 78.8366C53.1872 78.8024 53.1027 78.7781 53.0263 78.7439C52.7045 78.6172 52.4007 78.4904 52.087 78.3539C52.0188 78.3279 51.9684 78.2954 51.9002 78.2694C51.6385 78.1508 51.3753 78.0322 51.1137 77.9054C51.0373 77.8713 50.9609 77.8291 50.8845 77.7868C50.6814 77.6942 50.4783 77.5837 50.2752 77.4813C50.1403 77.4131 50.0038 77.3464 49.877 77.2782C49.6317 77.1433 49.3863 77.0068 49.1409 76.8719C49.0645 76.8216 48.98 76.7696 48.8955 76.7273C48.5738 76.5323 48.2602 76.3373 47.9482 76.1439C47.8637 76.0936 47.7792 76.0334 47.6947 75.9749C47.4655 75.8303 47.238 75.6792 47.017 75.5264C46.9407 75.4761 46.8724 75.4241 46.7977 75.3656C46.5783 75.2209 46.3654 75.0698 46.1542 74.9089C46.0615 74.8326 45.9673 74.7643 45.8665 74.6896C45.6797 74.5449 45.4863 74.4019 45.2994 74.2411L45.0378 74.0379C44.7924 73.8429 44.5552 73.6398 44.3179 73.4286C44.2919 73.4026 44.2675 73.3863 44.2334 73.3603L43.4892 72.6827L43.2698 72.4796C43.0927 72.2927 42.9139 72.1237 42.7287 71.9466L42.5174 71.7272C42.2883 71.4981 42.0689 71.2706 41.8495 71.0252L41.8154 70.9911C41.5863 70.7457 41.3669 70.4824 41.1378 70.2289C41.0793 70.1607 41.0273 70.0843 40.9688 70.0177L40.478 69.4164C40.2245 69.0947 39.9792 68.7729 39.7419 68.4431C34.68 61.5368 32.8519 52.0062 36.8982 44.1867L33.3264 48.7286ZM47.5955 43.1597C44.261 47.9502 44.4463 54.3478 47.0447 59.4097C47.4769 60.2563 47.9677 61.0769 48.5088 61.8634C49.0077 62.5752 49.5585 63.4202 50.2264 63.9971C50.4555 64.2587 50.709 64.5138 50.9707 64.7754L51.1657 64.9704C51.411 65.2077 51.6645 65.4449 51.9278 65.6724L51.9619 65.7066C52.2495 65.9601 52.5453 66.2054 52.8589 66.4427C52.9272 66.4931 52.9938 66.5532 53.062 66.6036C53.3675 66.8327 53.6714 67.0602 53.985 67.2812L54.0192 67.3072C54.154 67.3998 54.2987 67.4941 54.4514 67.5867C54.5099 67.6289 54.5782 67.6793 54.6464 67.7134C54.8755 67.8662 55.103 68.0011 55.3322 68.1457C55.3744 68.1619 55.4004 68.1798 55.4345 68.1961C55.6295 68.3147 55.8489 68.4252 56.052 68.5341C56.1203 68.5763 56.1869 68.6104 56.2633 68.6527C56.4079 68.7209 56.5509 68.7973 56.6858 68.8721L56.7622 68.8981C57.0498 69.0427 57.3455 69.1776 57.6429 69.3124C57.7193 69.3384 57.7778 69.3628 57.846 69.3969C58.0833 69.4993 58.3287 69.6001 58.5659 69.6927C58.6764 69.7268 58.7772 69.7691 58.8795 69.8032C59.0989 69.8877 59.3362 69.9641 59.5572 70.0404L59.8529 70.1331C60.1747 70.2354 60.4964 70.3622 60.8263 70.4126C77.9912 73.2563 81.9594 60.0451 81.9594 60.0451C78.3795 65.1914 71.4652 67.6452 64.0844 65.7326C63.7545 65.6481 63.4328 65.5457 63.111 65.4449C63.0087 65.4189 62.916 65.3864 62.8153 65.3604C62.5959 65.2759 62.3587 65.1996 62.1474 65.1232L61.8338 65.0046C61.5884 64.9022 61.343 64.8177 61.1058 64.7088C61.0294 64.6747 60.9612 64.6584 60.9108 64.6243C60.6053 64.4894 60.3014 64.3529 60.0057 64.2099L59.5572 63.9727L59.3037 63.8459C59.1005 63.7436 58.9137 63.6347 58.7284 63.5242C58.678 63.4982 58.6358 63.4738 58.5935 63.4478C58.3644 63.3032 58.1288 63.1683 57.9078 63.0156C57.8314 62.9733 57.7632 62.9311 57.6965 62.8807L57.248 62.5931C56.9344 62.3737 56.6305 62.1364 56.3169 61.9154C56.2487 61.8472 56.182 61.7968 56.1138 61.7464C52.8719 59.1903 50.3158 55.7031 49.097 51.7592C47.8198 47.6544 48.1074 43.0508 50.3077 39.3182L47.5955 43.1597ZM59.5978 38.9964C57.6348 41.8824 57.4398 45.4704 58.7934 48.6538C60.2315 52.0306 63.1777 54.6891 66.6048 55.9403C66.7494 55.9988 66.8843 56.0427 67.0273 56.0931L67.2142 56.1516C67.4173 56.2101 67.6204 56.2864 67.8235 56.3384C77.3022 58.1666 79.8664 51.4634 80.5619 50.4819C78.3015 53.7238 74.5185 54.5022 69.8727 53.3761C69.5005 53.2737 69.1284 53.1648 68.7547 53.0283C68.3062 52.8674 67.8577 52.6806 67.4173 52.4774C66.5967 52.0712 65.8085 51.5967 65.0805 51.0474C60.9157 47.8901 58.3433 41.8808 61.0603 36.9814L59.5978 38.9964Z" fill="black"/>
</svg>
