<svg width="100" height="99" viewBox="0 0 100 99" fill="none" xmlns="http://www.w3.org/2000/svg">
<mask id="path-1-inside-1_15_22" fill="white">
<path d="M8.50911 28.0404L6.85547 26.3867L10.9082 22.3307L6.85547 18.2747L8.51237 16.6178L14.222 22.3307L8.50911 28.0404ZM7.68229 4.42708C6.78385 4.42708 6.05469 5.15625 6.05469 6.05469C6.05469 6.95312 6.78385 7.68229 7.68229 7.68229C8.58073 7.68229 9.3099 6.95312 9.3099 6.05469C9.3099 5.15625 8.58073 4.42708 7.68229 4.42708ZM15.8203 6.05469C15.8203 6.95312 15.0911 7.68229 14.1927 7.68229C13.2943 7.68229 12.5651 6.95312 12.5651 6.05469C12.5651 5.15625 13.2943 4.42708 14.1927 4.42708C15.0911 4.42708 15.8203 5.15625 15.8203 6.05469ZM22.3307 6.05469C22.3307 6.95312 21.6016 7.68229 20.7031 7.68229C19.8047 7.68229 19.0755 6.95312 19.0755 6.05469C19.0755 5.15625 19.8047 4.42708 20.7031 4.42708C21.6016 4.42708 22.3307 5.15625 22.3307 6.05469ZM58.138 19.0755C58.138 19.974 57.4089 20.7031 56.5104 20.7031C55.612 20.7031 54.8828 19.974 54.8828 19.0755C54.8828 18.1771 55.612 17.4479 56.5104 17.4479C57.4089 17.4479 58.138 18.1771 58.138 19.0755ZM64.6484 19.0755C64.6484 19.974 63.9193 20.7031 63.0208 20.7031C62.1224 20.7031 61.3932 19.974 61.3932 19.0755C61.3932 18.1771 62.1224 17.4479 63.0208 17.4479C63.9193 17.4479 64.6484 18.1771 64.6484 19.0755ZM71.1589 19.0755C71.1589 19.974 70.4297 20.7031 69.5313 20.7031C68.6328 20.7031 67.9036 19.974 67.9036 19.0755C67.9036 18.1771 68.6328 17.4479 69.5313 17.4479C70.4297 17.4479 71.1589 18.1771 71.1589 19.0755ZM15.8203 77.6693C15.8203 78.5677 15.0911 79.2969 14.1927 79.2969C13.2943 79.2969 12.5651 78.5677 12.5651 77.6693C12.5651 76.7708 13.2943 76.0417 14.1927 76.0417C15.0911 76.0417 15.8203 76.7708 15.8203 77.6693ZM40.2344 44.6615H1.17188C0.524089 44.6615 0 44.1374 0 43.4896V1.17188C0 0.524089 0.524089 0 1.17188 0H40.2344C40.8822 0 41.4062 0.524089 41.4062 1.17188V43.4896C41.4062 44.1374 40.8822 44.6615 40.2344 44.6615ZM39.0625 12.1094H2.34375V42.3177H39.0625C39.0625 42.3177 39.0625 12.1094 39.0625 12.1094ZM39.0625 2.34375H2.34375V9.76888H39.0625C39.0625 9.76888 39.0625 2.34375 39.0625 2.34375ZM100 14.1927V69.5313C100 70.179 99.4759 70.7031 98.8281 70.7031H62.015C61.0352 72.2363 59.7689 73.584 58.265 74.6582C67.6237 78.0762 73.9518 86.9564 73.9518 97.1256L73.9583 98.8216L71.6113 98.8281L71.6048 97.1289C71.6048 87.1094 64.8014 78.4798 55.0586 76.1328C54.5703 76.0189 54.2122 75.6022 54.1667 75.1042C54.1211 74.6061 54.3945 74.1309 54.8535 73.929C59.1341 72.002 61.901 67.7441 61.901 63.0762C61.901 56.5104 56.5625 51.1719 50 51.1719C43.431 51.1719 38.0859 56.5104 38.0859 63.0762C38.0859 67.7441 40.8529 72.002 45.1367 73.929C45.5957 74.1309 45.8691 74.6061 45.8236 75.1042C45.778 75.6022 45.4167 76.0189 44.9316 76.1328C35.1888 78.4798 28.3822 87.1094 28.3822 97.1256L28.3854 98.8216L26.0417 98.8281L26.0384 97.1289C26.0384 86.9564 32.3633 78.0729 41.7253 74.6582C38.0208 72.015 35.7422 67.7116 35.7422 63.0729C35.7422 55.612 41.5104 49.4727 48.8281 48.8737V14.1927C48.8281 13.5449 49.3522 13.0208 50 13.0208H98.8281C99.4759 13.0208 100 13.5449 100 14.1927ZM97.6562 25.1302H51.1719V48.8769C58.4831 49.4759 64.248 55.6152 64.248 63.0762C64.248 64.9186 63.89 66.7057 63.2227 68.3594H97.6562V25.1302ZM97.6562 15.3646H51.1719V22.7865H97.6562V15.3646ZM69.5313 35.8073H56.5104V38.151H69.5313V35.8073ZM74.8698 54.8828C74.8698 49.7493 79.0462 45.5729 84.1797 45.5729C89.3132 45.5729 93.4896 49.7493 93.4896 54.8828C93.4896 60.0163 89.3132 64.1927 84.1797 64.1927C79.0462 64.1927 74.8698 60.0163 74.8698 54.8828ZM89.8503 50.8659L85.3483 55.3678L85.3353 61.7318C88.623 61.1751 91.1426 58.3268 91.1426 54.8828C91.1458 53.3854 90.6576 52.002 89.8503 50.8659ZM77.2135 54.8828C77.2135 58.3171 79.7168 61.1589 82.9883 61.7285L83.0078 54.3945L88.1901 49.209C87.054 48.4017 85.6738 47.9167 84.1764 47.9167C80.3385 47.9167 77.2135 51.0417 77.2135 54.8828ZM23.9583 29.2969H14.1927V31.6406H23.9583V29.2969ZM9.3099 67.4479H19.0755V65.1042H9.3099V67.4479ZM9.3099 60.9375H19.0755V58.5937H9.3099V60.9375ZM69.5313 42.3177H56.5104V44.6615H69.5313V42.3177ZM92.3177 35.8073H79.2969V38.151H92.3177V35.8073ZM92.3177 29.2969H79.2969V31.6406H92.3177V29.2969ZM69.5313 29.2969H56.5104V31.6406H69.5313V29.2969ZM25.1302 55.1562V80.651C25.1302 82.347 23.7533 83.724 22.0573 83.724H6.32813C4.63216 83.724 3.25521 82.3438 3.25521 80.651V55.1562C3.25521 53.4603 4.63216 52.0833 6.32813 52.0833H22.0573C23.7533 52.0833 25.1302 53.4603 25.1302 55.1562ZM22.7865 73.9583H5.59896V80.651C5.59896 81.0514 5.92773 81.3802 6.32813 81.3802H22.0573C22.4609 81.3802 22.7865 81.0514 22.7865 80.651C22.7865 80.651 22.7865 73.9583 22.7865 73.9583ZM22.7865 55.1562C22.7865 54.7559 22.4577 54.4271 22.0573 54.4271H6.32813C5.92448 54.4271 5.59896 54.7559 5.59896 55.1562V71.6146H22.7865C22.7865 71.6146 22.7865 55.1562 22.7865 55.1562Z"/>
</mask>
<path d="M8.50911 28.0404L6.85547 26.3867L10.9082 22.3307L6.85547 18.2747L8.51237 16.6178L14.222 22.3307L8.50911 28.0404ZM7.68229 4.42708C6.78385 4.42708 6.05469 5.15625 6.05469 6.05469C6.05469 6.95312 6.78385 7.68229 7.68229 7.68229C8.58073 7.68229 9.3099 6.95312 9.3099 6.05469C9.3099 5.15625 8.58073 4.42708 7.68229 4.42708ZM15.8203 6.05469C15.8203 6.95312 15.0911 7.68229 14.1927 7.68229C13.2943 7.68229 12.5651 6.95312 12.5651 6.05469C12.5651 5.15625 13.2943 4.42708 14.1927 4.42708C15.0911 4.42708 15.8203 5.15625 15.8203 6.05469ZM22.3307 6.05469C22.3307 6.95312 21.6016 7.68229 20.7031 7.68229C19.8047 7.68229 19.0755 6.95312 19.0755 6.05469C19.0755 5.15625 19.8047 4.42708 20.7031 4.42708C21.6016 4.42708 22.3307 5.15625 22.3307 6.05469ZM58.138 19.0755C58.138 19.974 57.4089 20.7031 56.5104 20.7031C55.612 20.7031 54.8828 19.974 54.8828 19.0755C54.8828 18.1771 55.612 17.4479 56.5104 17.4479C57.4089 17.4479 58.138 18.1771 58.138 19.0755ZM64.6484 19.0755C64.6484 19.974 63.9193 20.7031 63.0208 20.7031C62.1224 20.7031 61.3932 19.974 61.3932 19.0755C61.3932 18.1771 62.1224 17.4479 63.0208 17.4479C63.9193 17.4479 64.6484 18.1771 64.6484 19.0755ZM71.1589 19.0755C71.1589 19.974 70.4297 20.7031 69.5313 20.7031C68.6328 20.7031 67.9036 19.974 67.9036 19.0755C67.9036 18.1771 68.6328 17.4479 69.5313 17.4479C70.4297 17.4479 71.1589 18.1771 71.1589 19.0755ZM15.8203 77.6693C15.8203 78.5677 15.0911 79.2969 14.1927 79.2969C13.2943 79.2969 12.5651 78.5677 12.5651 77.6693C12.5651 76.7708 13.2943 76.0417 14.1927 76.0417C15.0911 76.0417 15.8203 76.7708 15.8203 77.6693ZM40.2344 44.6615H1.17188C0.524089 44.6615 0 44.1374 0 43.4896V1.17188C0 0.524089 0.524089 0 1.17188 0H40.2344C40.8822 0 41.4062 0.524089 41.4062 1.17188V43.4896C41.4062 44.1374 40.8822 44.6615 40.2344 44.6615ZM39.0625 12.1094H2.34375V42.3177H39.0625C39.0625 42.3177 39.0625 12.1094 39.0625 12.1094ZM39.0625 2.34375H2.34375V9.76888H39.0625C39.0625 9.76888 39.0625 2.34375 39.0625 2.34375ZM100 14.1927V69.5313C100 70.179 99.4759 70.7031 98.8281 70.7031H62.015C61.0352 72.2363 59.7689 73.584 58.265 74.6582C67.6237 78.0762 73.9518 86.9564 73.9518 97.1256L73.9583 98.8216L71.6113 98.8281L71.6048 97.1289C71.6048 87.1094 64.8014 78.4798 55.0586 76.1328C54.5703 76.0189 54.2122 75.6022 54.1667 75.1042C54.1211 74.6061 54.3945 74.1309 54.8535 73.929C59.1341 72.002 61.901 67.7441 61.901 63.0762C61.901 56.5104 56.5625 51.1719 50 51.1719C43.431 51.1719 38.0859 56.5104 38.0859 63.0762C38.0859 67.7441 40.8529 72.002 45.1367 73.929C45.5957 74.1309 45.8691 74.6061 45.8236 75.1042C45.778 75.6022 45.4167 76.0189 44.9316 76.1328C35.1888 78.4798 28.3822 87.1094 28.3822 97.1256L28.3854 98.8216L26.0417 98.8281L26.0384 97.1289C26.0384 86.9564 32.3633 78.0729 41.7253 74.6582C38.0208 72.015 35.7422 67.7116 35.7422 63.0729C35.7422 55.612 41.5104 49.4727 48.8281 48.8737V14.1927C48.8281 13.5449 49.3522 13.0208 50 13.0208H98.8281C99.4759 13.0208 100 13.5449 100 14.1927ZM97.6562 25.1302H51.1719V48.8769C58.4831 49.4759 64.248 55.6152 64.248 63.0762C64.248 64.9186 63.89 66.7057 63.2227 68.3594H97.6562V25.1302ZM97.6562 15.3646H51.1719V22.7865H97.6562V15.3646ZM69.5313 35.8073H56.5104V38.151H69.5313V35.8073ZM74.8698 54.8828C74.8698 49.7493 79.0462 45.5729 84.1797 45.5729C89.3132 45.5729 93.4896 49.7493 93.4896 54.8828C93.4896 60.0163 89.3132 64.1927 84.1797 64.1927C79.0462 64.1927 74.8698 60.0163 74.8698 54.8828ZM89.8503 50.8659L85.3483 55.3678L85.3353 61.7318C88.623 61.1751 91.1426 58.3268 91.1426 54.8828C91.1458 53.3854 90.6576 52.002 89.8503 50.8659ZM77.2135 54.8828C77.2135 58.3171 79.7168 61.1589 82.9883 61.7285L83.0078 54.3945L88.1901 49.209C87.054 48.4017 85.6738 47.9167 84.1764 47.9167C80.3385 47.9167 77.2135 51.0417 77.2135 54.8828ZM23.9583 29.2969H14.1927V31.6406H23.9583V29.2969ZM9.3099 67.4479H19.0755V65.1042H9.3099V67.4479ZM9.3099 60.9375H19.0755V58.5937H9.3099V60.9375ZM69.5313 42.3177H56.5104V44.6615H69.5313V42.3177ZM92.3177 35.8073H79.2969V38.151H92.3177V35.8073ZM92.3177 29.2969H79.2969V31.6406H92.3177V29.2969ZM69.5313 29.2969H56.5104V31.6406H69.5313V29.2969ZM25.1302 55.1562V80.651C25.1302 82.347 23.7533 83.724 22.0573 83.724H6.32813C4.63216 83.724 3.25521 82.3438 3.25521 80.651V55.1562C3.25521 53.4603 4.63216 52.0833 6.32813 52.0833H22.0573C23.7533 52.0833 25.1302 53.4603 25.1302 55.1562ZM22.7865 73.9583H5.59896V80.651C5.59896 81.0514 5.92773 81.3802 6.32813 81.3802H22.0573C22.4609 81.3802 22.7865 81.0514 22.7865 80.651C22.7865 80.651 22.7865 73.9583 22.7865 73.9583ZM22.7865 55.1562C22.7865 54.7559 22.4577 54.4271 22.0573 54.4271H6.32813C5.92448 54.4271 5.59896 54.7559 5.59896 55.1562V71.6146H22.7865C22.7865 71.6146 22.7865 55.1562 22.7865 55.1562Z" fill="#69A1E6" stroke="#69A1E6" stroke-width="2" mask="url(#path-1-inside-1_15_22)"/>
</svg>
