<svg width="112" height="124" viewBox="0 0 112 124" fill="none" xmlns="http://www.w3.org/2000/svg">
<path d="M2.5 91.5273V32.4727L55.9344 2.85828L109.369 32.4727V91.5273L55.9344 121.142L2.5 91.5273Z" fill="white" stroke="#00D8FF" stroke-width="5"/>
<path d="M83.535 49.6315C82.66 49.3303 81.7532 49.0454 80.8196 48.7758C80.973 48.1496 81.1139 47.5314 81.2391 46.9238C83.2946 36.9459 81.9507 28.9077 77.3614 26.2612C72.9608 23.7236 65.7641 26.3695 58.4957 32.6949C57.7967 33.3032 57.0958 33.9472 56.3952 34.6221C55.9284 34.1756 55.4624 33.744 54.9975 33.3313C47.38 26.5677 39.7447 23.7174 35.1599 26.3716C30.7635 28.9166 29.4616 36.4733 31.3119 45.9293C31.4905 46.8427 31.6994 47.7754 31.9356 48.7237C30.855 49.0305 29.8117 49.3575 28.8135 49.7054C19.8829 52.819 14.1793 57.6989 14.1793 62.7605C14.1793 67.9883 20.3021 73.2317 29.6041 76.4111C30.3382 76.662 31.0999 76.8993 31.8848 77.1245C31.63 78.1502 31.4084 79.1553 31.2224 80.1356C29.4581 89.4275 30.8359 96.8057 35.2205 99.3346C39.7495 101.946 47.3503 99.2618 54.7516 92.7922C55.3365 92.2808 55.9236 91.7384 56.5117 91.17C57.2741 91.9041 58.0352 92.5988 58.7922 93.2504C65.9612 99.4196 73.0417 101.911 77.4223 99.3747C81.9468 96.7555 83.4172 88.8296 81.5082 79.1865C81.3624 78.45 81.1927 77.6976 81.0022 76.9318C81.536 76.774 82.06 76.6111 82.5709 76.4418C92.2412 73.2377 98.5331 68.0581 98.5331 62.7605C98.5331 57.6806 92.6456 52.7678 83.535 49.6315ZM81.4376 73.0212C80.9764 73.1739 80.5031 73.3215 80.0208 73.4646C78.9532 70.0849 77.5124 66.4911 75.7492 62.7781C77.4318 59.1535 78.8169 55.6057 79.8546 52.2479C80.7175 52.4976 81.555 52.7609 82.3621 53.0389C90.168 55.7261 94.9295 59.6992 94.9295 62.7605C94.9295 66.0215 89.7872 70.2546 81.4376 73.0212ZM77.9731 79.8863C78.8172 84.1504 78.9378 88.0056 78.3786 91.0194C77.8762 93.7275 76.8659 95.533 75.6166 96.2561C72.9583 97.7948 67.2733 95.7947 61.1423 90.5188C60.4395 89.914 59.7315 89.2682 59.0213 88.5847C61.3982 85.9852 63.7737 82.9632 66.0921 79.6069C70.17 79.245 74.0227 78.6535 77.5165 77.8458C77.6885 78.5399 77.8414 79.2207 77.9731 79.8863ZM42.9374 95.9902C40.3401 96.9075 38.2716 96.9337 37.0211 96.2127C34.3603 94.6781 33.2542 88.7541 34.763 80.8076C34.9359 79.8976 35.1416 78.9628 35.3786 78.0072C38.8342 78.7713 42.6586 79.3212 46.7462 79.6525C49.0803 82.9367 51.5244 85.9555 53.9875 88.5987C53.4493 89.1182 52.9133 89.6128 52.3803 90.0789C49.1075 92.9396 45.8278 94.9693 42.9374 95.9902ZM30.7695 73.0013C26.6564 71.5954 23.2596 69.7683 20.9312 67.7744C18.839 65.9827 17.7827 64.2039 17.7827 62.7605C17.7827 59.6889 22.3621 55.7711 29.9997 53.1082C30.9264 52.7851 31.8965 52.4806 32.9033 52.1946C33.9588 55.6282 35.3435 59.2181 37.0145 62.8482C35.3219 66.5323 33.9175 70.1794 32.8516 73.6532C32.1339 73.4469 31.4386 73.2298 30.7695 73.0013ZM34.8483 45.2373C33.263 37.1356 34.3159 31.0239 36.9653 29.4903C39.7873 27.8566 46.0276 30.186 52.6047 36.026C53.0251 36.3993 53.4472 36.7899 53.8705 37.1941C51.4196 39.8258 48.9979 42.8219 46.6845 46.0867C42.7173 46.4544 38.9197 47.0451 35.4282 47.8361C35.2087 46.953 35.0142 46.0855 34.8483 45.2373ZM71.2347 54.222C70.4 52.7803 69.5431 51.3727 68.6696 50.0035C71.361 50.3437 73.9396 50.7953 76.3612 51.348C75.6342 53.678 74.7281 56.1142 73.6614 58.6116C72.8963 57.1589 72.087 55.6942 71.2347 54.222ZM56.3964 39.7695C58.0586 41.5702 59.7231 43.5807 61.3603 45.7621C59.7105 45.6841 58.0403 45.6436 56.3562 45.6436C54.688 45.6436 53.0301 45.6832 51.3905 45.7598C53.0294 43.5987 54.7083 41.5909 56.3964 39.7695ZM41.4631 54.247C40.6293 55.6927 39.8351 57.1495 39.0819 58.6089C38.0325 56.1202 37.1348 53.6729 36.4015 51.3099C38.8082 50.7713 41.3747 50.3309 44.049 49.9972C43.1631 51.379 42.2991 52.797 41.4631 54.2467V54.247ZM44.126 75.781C41.363 75.4727 38.7579 75.055 36.3518 74.5313C37.0968 72.126 38.0143 69.6265 39.086 67.0842C39.8411 68.5426 40.6385 69.9999 41.4774 71.4489H41.4775C42.332 72.925 43.2173 74.3709 44.126 75.781ZM56.4961 86.0056C54.7882 84.1629 53.0846 82.1244 51.4208 79.9318C53.036 79.9952 54.6826 80.0276 56.3562 80.0276C58.0755 80.0276 59.7752 79.9889 61.4482 79.9144C59.8056 82.1465 58.147 84.1881 56.4961 86.0056ZM73.6958 66.9546C74.8233 69.5244 75.7737 72.0109 76.5283 74.3751C74.0826 74.9331 71.4419 75.3825 68.6597 75.7164C69.5353 74.3287 70.3997 72.8969 71.2491 71.4241C72.1084 69.934 72.9243 68.4417 73.6958 66.9546ZM68.1277 69.6238C66.8091 71.9101 65.4553 74.0927 64.081 76.1529C61.5779 76.3319 58.9919 76.424 56.3562 76.424C53.7311 76.424 51.1777 76.3425 48.7189 76.1829C47.2892 74.0957 45.906 71.9067 44.5958 69.6435H44.5961C43.2894 67.3865 42.0867 65.1104 40.9969 62.847C42.0864 60.5784 43.2859 58.2998 44.5851 56.0468L44.5848 56.0472C45.8875 53.7883 47.2585 51.6099 48.675 49.5357C51.1837 49.3461 53.7562 49.2472 56.356 49.2472H56.3562C58.9677 49.2472 61.5435 49.3469 64.0515 49.5382C65.4463 51.5971 66.808 53.7684 68.1158 56.0277C69.4385 58.3124 70.6535 60.5759 71.7523 62.7958C70.6568 65.0539 69.4445 67.3402 68.1277 69.6238ZM75.5614 29.3831C78.3861 31.0121 79.4846 37.5817 77.7099 46.1964C77.5967 46.7461 77.4692 47.306 77.3307 47.8735C73.8311 47.066 70.0308 46.4651 66.052 46.0918C63.7342 42.7911 61.3323 39.7904 58.9213 37.1925C59.5695 36.5689 60.2168 35.9743 60.8614 35.4132C67.089 29.9936 72.9095 27.8539 75.5614 29.3831ZM56.3562 55.228C60.5162 55.228 63.8887 58.6004 63.8887 62.7605C63.8887 66.9205 60.5162 70.293 56.3562 70.293C52.1962 70.293 48.8237 66.9205 48.8237 62.7605C48.8237 58.6004 52.1962 55.228 56.3562 55.228Z" fill="#00D8FF"/>
</svg>
