<svg width="112" height="124" viewBox="0 0 112 124" fill="none" xmlns="http://www.w3.org/2000/svg">
<path d="M2.5 91.5273V32.4727L55.9344 2.85828L109.369 32.4727V91.5273L55.9344 121.142L2.5 91.5273Z" fill="#CC6699" stroke="#894366" stroke-width="5"/>
<path d="M89.9801 28H22.0199C22.0089 28 22 28.0089 22 28.0199V95.9801C22 95.9911 22.0089 96 22.0199 96H89.9801C89.9911 96 90 95.9911 90 95.9801V28.0199C90 28.0089 89.9911 28 89.9801 28Z" fill="#CC6699"/>
<path d="M56.2655 39.6874C43.5155 44.0702 35.2812 52.9686 36.078 58.2811C36.8749 63.5936 44.8437 67.8436 48.4296 70.6327C43.7812 73.0233 37.9374 76.6093 38.0702 81.2577C38.3358 87.6327 45.2421 85.6405 48.164 83.7811C51.0858 81.9218 54.0077 76.7421 52.1483 71.2968C56.2655 70.2343 59.8515 71.5624 60.914 72.3593C65.0312 75.2811 62.9062 78.6014 61.4452 79.1327C59.9843 79.6639 60.914 79.9296 61.8437 79.6639C62.7733 79.3983 64.7655 78.0702 64.7655 75.8124C64.7655 70.1014 58.6562 67.4452 51.0858 69.4374C46.703 64.7889 40.7265 62.6639 40.9921 57.6171C41.1249 55.7577 41.789 50.9764 53.6093 44.9999C65.4296 39.0233 73.7968 41.4139 72.7343 46.8593C71.1405 55.0936 56.7968 60.6718 51.7499 55.8905C51.4843 55.3593 50.5546 54.9608 51.0858 56.4218C53.7421 63.0624 75.2577 60.0077 76.1874 45.9296C76.453 38.4921 65.6952 36.4999 56.2655 39.6874ZM44.8437 82.1874C41.5233 83.2499 41.6562 81.1249 41.789 80.328C42.1874 78.0702 44.0468 75.2811 49.6249 72.4921C51.2187 77.5389 47.6327 81.3905 44.8437 82.1874Z" fill="white"/>
</svg>
