<svg width="100" height="100" viewBox="0 0 100 100" fill="none" xmlns="http://www.w3.org/2000/svg">
<mask id="path-1-inside-1_15_95" fill="white">
<path d="M95.7451 29.7871C87.7373 11.6922 69.7819 0 50.0013 0C40.6316 0 31.4976 2.60722 23.5869 7.53944C17.581 11.2826 12.3275 16.3738 8.39452 22.2628C2.90273 30.4824 0 40.0739 0 50.0011C0 56.2403 1.13476 62.3249 3.37226 68.0854C7.55545 78.8682 15.4269 87.935 25.5365 93.6156C32.9673 97.7924 41.4271 99.9998 50.0009 99.9998C59.4583 99.9998 68.6663 97.3463 76.6295 92.3262C84.3766 87.4422 90.6356 80.5399 94.7303 72.3661C98.227 65.388 99.9998 57.8636 99.9998 50.0009C99.9998 42.9695 98.5684 36.1685 95.7451 29.7871ZM90.3959 26.1535C85.792 23.6127 81.0504 21.889 76.2428 21.0177C70.9655 20.0613 65.594 20.1213 60.2774 21.1961C53.1917 22.6283 47.9732 25.4863 45.478 27.0738C39.8267 17.2945 31.6001 11.3607 27.5031 8.83807C34.3742 5.07636 42.0974 3.09843 50.0011 3.09843C66.7087 3.09804 82.0268 11.9912 90.3959 26.1535ZM24.4769 10.6492C27.5035 12.3345 37.5087 18.5504 43.5757 30.031C46.7657 36.0615 48.4054 42.6775 48.4509 49.6997C47.8823 50.9728 44.3882 57.6204 31.9269 62.0282C31.732 54.5474 30.6203 47.861 28.6091 42.1314C26.8277 37.0552 24.3419 32.7083 21.2212 29.2111C17.7082 25.274 14.1845 23.3031 12.0888 22.3902C15.4578 17.7795 19.698 13.7578 24.4769 10.6492ZM3.09804 50.0011C3.09804 41.0962 5.58905 32.4808 10.3103 25.0035C11.8955 25.6197 15.3759 27.3124 18.9103 31.2734C26.7736 40.0859 28.6912 53.1718 28.8511 63.0106C22.338 64.8889 14.6226 65.8813 5.88671 65.9671C4.03554 60.8618 3.09804 55.4962 3.09804 50.0011ZM7.12948 69.0477C16.1654 68.8717 24.1447 67.73 30.871 65.6421C44.6894 61.3495 49.5714 54.2599 50.9776 51.5772C53.6444 51.7212 61.7233 52.5927 71.9213 57.7688C71.112 60.228 68.528 67.0885 63.0251 73.8588C59.0429 78.7582 54.3259 82.6586 49.0052 85.4518C42.4616 88.8869 34.9601 90.653 26.7003 90.711C18.0414 85.7453 11.1674 78.1213 7.12948 69.0477ZM74.9774 89.7057C67.5096 94.4135 58.8727 96.902 50.0009 96.902C43.9642 96.902 37.9892 95.7359 32.4372 93.4981C39.0001 92.8182 45.0616 91.0328 50.5159 88.1574C56.2173 85.1518 61.2616 80.9651 65.5092 75.7137C70.9692 68.9631 73.6645 62.2729 74.6942 59.2597C80.5545 62.5751 86.175 66.8491 91.436 71.9909C87.594 79.2172 81.9241 85.3262 74.9774 89.7057ZM92.8629 69.0616C87.1207 63.569 80.9664 59.0569 74.5413 55.6391C63.655 49.8489 54.9526 48.7146 51.5263 48.4995C51.3245 41.8847 49.7868 35.613 46.9441 29.8181C49.0755 28.4458 54.0837 25.6087 60.8915 24.2326C71.951 21.997 82.7801 24.4248 93.0842 31.4431C95.6154 37.3109 96.9022 43.5513 96.9022 50.0013C96.9018 56.6628 95.5412 63.0634 92.8629 69.0616Z"/>
</mask>
<path d="M95.7451 29.7871C87.7373 11.6922 69.7819 0 50.0013 0C40.6316 0 31.4976 2.60722 23.5869 7.53944C17.581 11.2826 12.3275 16.3738 8.39452 22.2628C2.90273 30.4824 0 40.0739 0 50.0011C0 56.2403 1.13476 62.3249 3.37226 68.0854C7.55545 78.8682 15.4269 87.935 25.5365 93.6156C32.9673 97.7924 41.4271 99.9998 50.0009 99.9998C59.4583 99.9998 68.6663 97.3463 76.6295 92.3262C84.3766 87.4422 90.6356 80.5399 94.7303 72.3661C98.227 65.388 99.9998 57.8636 99.9998 50.0009C99.9998 42.9695 98.5684 36.1685 95.7451 29.7871ZM90.3959 26.1535C85.792 23.6127 81.0504 21.889 76.2428 21.0177C70.9655 20.0613 65.594 20.1213 60.2774 21.1961C53.1917 22.6283 47.9732 25.4863 45.478 27.0738C39.8267 17.2945 31.6001 11.3607 27.5031 8.83807C34.3742 5.07636 42.0974 3.09843 50.0011 3.09843C66.7087 3.09804 82.0268 11.9912 90.3959 26.1535ZM24.4769 10.6492C27.5035 12.3345 37.5087 18.5504 43.5757 30.031C46.7657 36.0615 48.4054 42.6775 48.4509 49.6997C47.8823 50.9728 44.3882 57.6204 31.9269 62.0282C31.732 54.5474 30.6203 47.861 28.6091 42.1314C26.8277 37.0552 24.3419 32.7083 21.2212 29.2111C17.7082 25.274 14.1845 23.3031 12.0888 22.3902C15.4578 17.7795 19.698 13.7578 24.4769 10.6492ZM3.09804 50.0011C3.09804 41.0962 5.58905 32.4808 10.3103 25.0035C11.8955 25.6197 15.3759 27.3124 18.9103 31.2734C26.7736 40.0859 28.6912 53.1718 28.8511 63.0106C22.338 64.8889 14.6226 65.8813 5.88671 65.9671C4.03554 60.8618 3.09804 55.4962 3.09804 50.0011ZM7.12948 69.0477C16.1654 68.8717 24.1447 67.73 30.871 65.6421C44.6894 61.3495 49.5714 54.2599 50.9776 51.5772C53.6444 51.7212 61.7233 52.5927 71.9213 57.7688C71.112 60.228 68.528 67.0885 63.0251 73.8588C59.0429 78.7582 54.3259 82.6586 49.0052 85.4518C42.4616 88.8869 34.9601 90.653 26.7003 90.711C18.0414 85.7453 11.1674 78.1213 7.12948 69.0477ZM74.9774 89.7057C67.5096 94.4135 58.8727 96.902 50.0009 96.902C43.9642 96.902 37.9892 95.7359 32.4372 93.4981C39.0001 92.8182 45.0616 91.0328 50.5159 88.1574C56.2173 85.1518 61.2616 80.9651 65.5092 75.7137C70.9692 68.9631 73.6645 62.2729 74.6942 59.2597C80.5545 62.5751 86.175 66.8491 91.436 71.9909C87.594 79.2172 81.9241 85.3262 74.9774 89.7057ZM92.8629 69.0616C87.1207 63.569 80.9664 59.0569 74.5413 55.6391C63.655 49.8489 54.9526 48.7146 51.5263 48.4995C51.3245 41.8847 49.7868 35.613 46.9441 29.8181C49.0755 28.4458 54.0837 25.6087 60.8915 24.2326C71.951 21.997 82.7801 24.4248 93.0842 31.4431C95.6154 37.3109 96.9022 43.5513 96.9022 50.0013C96.9018 56.6628 95.5412 63.0634 92.8629 69.0616Z" fill="#C27070"/>
<path d="M95.7451 29.7871L104.89 25.7412L104.89 25.7402L95.7451 29.7871ZM23.5869 7.53944L28.8762 16.0261L28.8776 16.0252L23.5869 7.53944ZM8.39452 22.2628L16.7094 27.8183L16.7105 27.8167L8.39452 22.2628ZM3.37226 68.0854L12.6953 64.4685L12.6938 64.4648L3.37226 68.0854ZM25.5365 93.6156L30.4363 84.8983L30.4352 84.8977L25.5365 93.6156ZM76.6295 92.3262L81.9624 100.786L81.9625 100.785L76.6295 92.3262ZM94.7303 72.3661L85.7899 67.8861L85.7894 67.8871L94.7303 72.3661ZM90.3959 26.1535L85.5641 34.9087L117.649 52.616L99.0051 21.0659L90.3959 26.1535ZM76.2428 21.0177L74.4595 30.8574L74.4596 30.8574L76.2428 21.0177ZM60.2774 21.1961L62.2586 30.9978L62.2589 30.9978L60.2774 21.1961ZM45.478 27.0738L36.8198 32.0773L42.0413 41.1128L50.8461 35.5109L45.478 27.0738ZM27.5031 8.83807L22.7009 0.0665562L7.60601 8.33058L22.26 17.3534L27.5031 8.83807ZM50.0011 3.09843L50.0011 13.0984L50.0013 13.0984L50.0011 3.09843ZM24.4769 10.6492L29.342 1.91244L24.0764 -1.01974L19.0242 2.26661L24.4769 10.6492ZM43.5757 30.031L34.7343 34.7033L34.7363 34.7069L43.5757 30.031ZM48.4509 49.6997L57.5816 53.7776L58.4647 51.8003L58.4507 49.6349L48.4509 49.6997ZM31.9269 62.0282L21.9303 62.2887L22.2887 76.0446L35.2616 71.4558L31.9269 62.0282ZM28.6091 42.1314L19.1733 45.4428L19.1735 45.4433L28.6091 42.1314ZM21.2212 29.2111L13.7598 35.8689L13.7599 35.869L21.2212 29.2111ZM12.0888 22.3902L4.01456 16.4905L-3.3516 26.5719L8.09527 31.5581L12.0888 22.3902ZM10.3103 25.0035L13.9336 15.6829L6.25386 12.6975L1.85481 19.6645L10.3103 25.0035ZM18.9103 31.2734L26.3718 24.6156L26.3717 24.6155L18.9103 31.2734ZM28.8511 63.0106L31.6221 72.619L38.9742 70.4988L38.8498 62.8481L28.8511 63.0106ZM5.88671 65.9671L-3.51435 69.3759L-1.09935 76.0361L5.98485 75.9666L5.88671 65.9671ZM7.12948 69.0477L6.93476 59.0496L-8.1347 59.3431L-2.00671 73.1134L7.12948 69.0477ZM30.871 65.6421L33.8355 75.1925L33.8376 75.1919L30.871 65.6421ZM50.9776 51.5772L51.5166 41.5918L45.1029 41.2456L42.1208 46.9344L50.9776 51.5772ZM71.9213 57.7688L81.4201 60.8951L84.1047 52.7383L76.4474 48.8517L71.9213 57.7688ZM63.0251 73.8588L55.2651 67.5515L55.2651 67.5515L63.0251 73.8588ZM49.0052 85.4518L44.3571 76.5977L44.3571 76.5977L49.0052 85.4518ZM26.7003 90.711L21.7256 99.3858L24.0691 100.73L26.7706 100.711L26.7003 90.711ZM74.9774 89.7057L80.3103 98.165L80.3105 98.1649L74.9774 89.7057ZM32.4372 93.4981L31.4068 83.5513L28.6987 102.773L32.4372 93.4981ZM50.5159 88.1574L55.1794 97.0035L55.1794 97.0035L50.5159 88.1574ZM65.5092 75.7137L73.2842 82.0026L73.2844 82.0024L65.5092 75.7137ZM74.6942 59.2597L79.6182 50.556L69.1285 44.6216L65.2314 56.0261L74.6942 59.2597ZM91.436 71.9909L100.266 76.6853L103.781 70.0734L98.4256 64.8393L91.436 71.9909ZM92.8629 69.0616L85.9507 76.288L96.2072 86.0987L101.994 73.1388L92.8629 69.0616ZM74.5413 55.6391L79.2375 46.8105L79.2372 46.8103L74.5413 55.6391ZM51.5263 48.4995L41.5309 48.8044L41.8086 57.9093L50.8999 58.4799L51.5263 48.4995ZM46.9441 29.8181L41.5308 21.41L34.0451 26.2294L37.9661 34.2223L46.9441 29.8181ZM60.8915 24.2326L58.9102 14.4308L58.9101 14.4308L60.8915 24.2326ZM93.0842 31.4431L102.266 27.4821L101.115 24.814L98.7136 23.1782L93.0842 31.4431ZM96.9022 50.0013L106.902 50.0019V50.0013H96.9022ZM104.89 25.7402C95.281 4.02794 73.7414 -10 50.0013 -10V10C65.8224 10 80.1936 19.3564 86.6006 33.8339L104.89 25.7402ZM50.0013 -10C38.771 -10 27.8025 -6.87341 18.2961 -0.946318L28.8776 16.0252C35.1927 12.0878 42.4921 10 50.0013 10V-10ZM18.2976 -0.947204C11.0852 3.5479 4.80016 9.63917 0.078555 16.709L16.7105 27.8167C19.8549 23.1084 24.0768 19.0173 28.8762 16.0261L18.2976 -0.947204ZM0.0796703 16.7074C-6.51578 26.5787 -10 38.1052 -10 50.0011H10C10 42.0427 12.3212 34.386 16.7094 27.8183L0.0796703 16.7074ZM-10 50.0011C-10 57.4669 -8.63948 64.78 -5.94927 71.7061L12.6938 64.4648C10.909 59.8698 10 55.0138 10 50.0011H-10ZM-5.95074 71.7023C-0.926392 84.6533 8.5125 95.5203 20.6378 102.334L30.4352 84.8977C22.3413 80.3497 16.0373 73.0832 12.6953 64.4685L-5.95074 71.7023ZM20.6366 102.333C29.5729 107.356 39.7215 110 50.0009 110V89.9998C43.1326 89.9998 36.3617 88.2289 30.4363 84.8983L20.6366 102.333ZM50.0009 110C61.3364 110 72.3947 106.817 81.9624 100.786L71.2967 83.8668C64.9379 87.8755 57.5802 89.9998 50.0009 89.9998V110ZM81.9625 100.785C91.2502 94.9303 98.758 86.6526 103.671 76.845L85.7894 67.8871C82.5131 74.4272 77.503 79.9542 71.2966 83.8669L81.9625 100.785ZM103.671 76.846C107.869 68.4667 110 59.4071 110 50.0009H89.9998C89.9998 56.3201 88.5845 62.3092 85.7899 67.8861L103.671 76.846ZM110 50.0009C110 41.587 108.282 33.407 104.89 25.7412L86.6001 33.8329C88.8551 38.93 89.9998 44.3519 89.9998 50.0009H110ZM95.2278 17.3983C89.7511 14.3758 83.9861 12.2582 78.0261 11.178L74.4596 30.8574C78.1148 31.5199 81.833 32.8495 85.5641 34.9087L95.2278 17.3983ZM78.0261 11.178C71.4884 9.99316 64.8394 10.0715 58.2959 11.3943L62.2589 30.9978C66.3487 30.171 70.4425 30.1294 74.4595 30.8574L78.0261 11.178ZM58.2962 11.3943C49.6583 13.1402 43.2905 16.6132 40.11 18.6367L50.8461 35.5109C52.6558 34.3594 56.7251 32.1163 62.2586 30.9978L58.2962 11.3943ZM54.1363 22.0703C47.3221 10.2789 37.5517 3.28167 32.7461 0.322768L22.26 17.3534C25.6486 19.4398 32.3312 24.3101 36.8198 32.0773L54.1363 22.0703ZM32.3052 17.6096C37.6989 14.6567 43.77 13.0984 50.0011 13.0984V-6.90157C40.4248 -6.90157 31.0494 -4.50397 22.7009 0.0665562L32.3052 17.6096ZM50.0013 13.0984C63.1395 13.0981 75.2001 20.095 81.7868 31.241L99.0051 21.0659C88.8535 3.88739 70.2778 -6.90204 50.0008 -6.90157L50.0013 13.0984ZM19.6118 19.386C21.9729 20.7007 29.9967 25.7383 34.7343 34.7033L52.4171 25.3587C45.0207 11.3624 33.034 3.96835 29.342 1.91244L19.6118 19.386ZM34.7363 34.7069C37.1517 39.2731 38.4157 44.301 38.4511 49.7645L58.4507 49.6349C58.3951 41.0539 56.3798 32.8498 52.4151 25.3551L34.7363 34.7069ZM39.3201 45.6218C39.789 44.5719 38.2909 49.17 28.5922 52.6006L35.2616 71.4558C50.4855 66.0708 55.9756 57.3737 57.5816 53.7776L39.3201 45.6218ZM41.9235 61.7677C41.7077 53.484 40.4712 45.7322 38.0448 38.8194L19.1735 45.4433C20.7693 49.9899 21.7563 55.6107 21.9303 62.2887L41.9235 61.7677ZM38.0449 38.8199C35.8938 32.6903 32.7928 27.1592 28.6826 22.5531L13.7599 35.869C15.8911 38.2574 17.7616 41.4201 19.1733 45.4428L38.0449 38.8199ZM28.6827 22.5532C24.04 17.3501 19.2483 14.6013 16.0824 13.2222L8.09527 31.5581C9.12078 32.0049 11.3764 33.1978 13.7598 35.8689L28.6827 22.5532ZM20.1631 28.2899C22.8196 24.6542 26.1729 21.4755 29.9296 19.0318L19.0242 2.26661C13.2231 6.04011 8.09599 10.9047 4.01456 16.4905L20.1631 28.2899ZM13.098 50.0011C13.098 42.9782 15.0577 36.2152 18.7659 30.3424L1.85481 19.6645C-3.8796 28.7464 -6.90196 39.2142 -6.90196 50.0011H13.098ZM6.68709 34.324C7.11885 34.4918 9.17172 35.3792 11.4489 37.9313L26.3717 24.6155C21.5802 19.2457 16.6721 16.7475 13.9336 15.6829L6.68709 34.324ZM11.4488 37.9312C16.8038 43.9326 18.7012 53.8718 18.8524 63.1732L38.8498 62.8481C38.6811 52.4717 36.7433 36.2391 26.3718 24.6156L11.4488 37.9312ZM26.0801 53.4022C20.6455 54.9695 13.8673 55.8883 5.78856 55.9675L5.98485 75.9666C15.378 75.8744 24.0305 74.8084 31.6221 72.619L26.0801 53.4022ZM15.2878 62.5582C13.8374 58.5584 13.098 54.3472 13.098 50.0011H-6.90196C-6.90196 56.6451 -5.76635 63.1652 -3.51435 69.3759L15.2878 62.5582ZM7.32419 79.0458C17.0446 78.8565 25.9966 77.6258 33.8355 75.1925L27.9065 56.0916C22.2927 57.8341 15.2862 58.887 6.93476 59.0496L7.32419 79.0458ZM33.8376 75.1919C50.3014 70.0776 57.2482 61.1538 59.8345 56.2201L42.1208 46.9344C41.8946 47.3659 39.0774 52.6214 27.9044 56.0922L33.8376 75.1919ZM50.4387 61.5627C52.0478 61.6496 58.7026 62.2738 67.3953 66.686L76.4474 48.8517C64.744 42.9115 55.2411 41.7928 51.5166 41.5918L50.4387 61.5627ZM62.4226 54.6426C61.8246 56.4594 59.7189 62.0719 55.2651 67.5515L70.7851 80.1662C77.3371 72.1052 80.3993 63.9967 81.4201 60.8951L62.4226 54.6426ZM55.2651 67.5515C52.093 71.4542 48.4185 74.4656 44.3571 76.5977L53.6533 94.3059C60.2333 90.8516 65.9927 86.0623 70.7851 80.1662L55.2651 67.5515ZM44.3571 76.5977C39.3886 79.206 33.4884 80.663 26.6301 80.7112L26.7706 100.711C36.4318 100.643 45.5347 98.5679 53.6533 94.3059L44.3571 76.5977ZM31.675 82.0362C24.8568 78.1261 19.4405 72.1161 16.2657 64.982L-2.00671 73.1134C2.89427 84.1265 11.226 93.3646 21.7256 99.3858L31.675 82.0362ZM69.6445 81.2464C63.7818 84.9423 56.9953 86.902 50.0009 86.902V106.902C60.7502 106.902 71.2375 103.885 80.3103 98.165L69.6445 81.2464ZM50.0009 86.902C45.2477 86.902 40.5418 85.983 36.1758 84.2232L28.6987 102.773C35.4366 105.489 42.6806 106.902 50.0009 106.902V86.902ZM33.4677 103.445C41.2023 102.644 48.5111 100.519 55.1794 97.0035L45.8525 79.3114C41.6121 81.5468 36.7979 82.9928 31.4068 83.5513L33.4677 103.445ZM55.1794 97.0035C62.1381 93.335 68.2254 88.2568 73.2842 82.0026L57.7343 69.4248C54.2978 73.6733 50.2965 76.9686 45.8524 79.3114L55.1794 97.0035ZM73.2844 82.0024C79.7186 74.0473 82.8929 66.1924 84.157 62.4932L65.2314 56.0261C64.4361 58.3535 62.2198 63.879 57.7341 69.4251L73.2844 82.0024ZM69.7702 67.9633C74.8119 70.8156 79.7474 74.5499 84.4463 79.1425L98.4256 64.8393C92.6027 59.1483 86.2972 54.3345 79.6182 50.556L69.7702 67.9633ZM82.6063 67.2965C79.5824 72.9842 75.118 77.7956 69.6443 81.2465L80.3105 98.1649C88.7301 92.8568 95.6056 85.4503 100.266 76.6853L82.6063 67.2965ZM99.7752 61.8352C93.4343 55.7699 86.5449 50.6975 79.2375 46.8105L69.845 64.4678C75.388 67.4163 80.8072 71.3681 85.9507 76.288L99.7752 61.8352ZM79.2372 46.8103C66.856 40.225 56.7087 38.8051 52.1526 38.5192L50.8999 58.4799C53.1966 58.624 60.4539 59.4729 69.8454 64.468L79.2372 46.8103ZM61.5216 48.1946C61.2776 40.1945 59.4084 32.5209 55.922 25.4139L37.9661 34.2223C40.1652 38.7051 41.3714 43.5748 41.5309 48.8044L61.5216 48.1946ZM52.3574 38.2262C53.8428 37.2698 57.6796 35.0841 62.8729 34.0343L58.9101 14.4308C50.4878 16.1334 44.3081 19.6219 41.5308 21.41L52.3574 38.2262ZM62.8728 34.0343C70.9997 32.3916 79.1179 34.0296 87.4548 39.7081L98.7136 23.1782C86.4424 14.8199 72.9024 11.6025 58.9102 14.4308L62.8728 34.0343ZM83.9021 35.4041C85.8904 40.0133 86.9022 44.9051 86.9022 50.0013H106.902C106.902 42.1975 105.34 34.6085 102.266 27.4821L83.9021 35.4041ZM86.9022 50.0007C86.9019 55.2713 85.8317 60.2816 83.7318 64.9844L101.994 73.1388C105.251 65.8451 106.902 58.0542 106.902 50.0019L86.9022 50.0007Z" fill="#C27070" mask="url(#path-1-inside-1_15_95)"/>
</svg>
