<svg width="24" height="24" viewBox="0 0 24 24" fill="none" xmlns="http://www.w3.org/2000/svg">
<g clip-path="url(#clip0_27_81)">
<path d="M21.3624 14.7576C21.3624 14.7576 23.3028 16.674 23.7828 17.5608C23.7921 17.5736 23.7994 17.5878 23.8044 17.6028C24 17.9304 24.048 18.1872 23.952 18.3768C23.79 18.69 23.2416 18.8472 23.0556 18.8604H19.626C19.3872 18.8604 18.8904 18.798 18.2856 18.3804C17.8236 18.0576 17.364 17.526 16.9188 17.0064C16.254 16.2348 15.6792 15.5652 15.0972 15.5652C15.0237 15.5651 14.9507 15.5773 14.8812 15.6012C14.4408 15.7404 13.8816 16.368 13.8816 18.0396C13.8816 18.5628 13.4688 18.8604 13.1796 18.8604H11.6088C11.0736 18.8604 8.28719 18.6732 5.81639 16.068C2.78879 12.8784 0.069586 6.48005 0.043186 6.42365C-0.126014 6.00965 0.229186 5.78405 0.613186 5.78405H4.07639C4.54079 5.78405 4.69199 6.06485 4.79759 6.31685C4.91999 6.60605 5.37359 7.76285 6.11759 9.06245C7.32239 11.1768 8.06279 12.0372 8.65439 12.0372C8.76553 12.0376 8.8748 12.0086 8.97119 11.9532C9.74399 11.5284 9.59999 8.76845 9.56399 8.19965C9.56399 8.08925 9.56279 6.96725 9.16679 6.42485C8.88359 6.03605 8.40119 5.88485 8.10959 5.82965C8.18759 5.71685 8.35319 5.54405 8.56559 5.44205C9.09479 5.17805 10.0512 5.13965 11.0004 5.13965H11.5272C12.5568 5.15405 12.8232 5.22005 13.1976 5.31485C13.9512 5.49485 13.9656 5.98325 13.8996 7.64645C13.8804 8.12165 13.86 8.65685 13.86 9.28685C13.86 9.42125 13.854 9.57125 13.854 9.72365C13.8312 10.5768 13.8012 11.538 14.4036 11.9328C14.4817 11.9815 14.5719 12.0073 14.664 12.0072C14.8728 12.0072 15.498 12.0072 17.1936 9.09725C17.9376 7.81205 18.5136 6.29645 18.5532 6.18245C18.5868 6.11885 18.6876 5.94005 18.81 5.86805C18.8971 5.82172 18.9946 5.79858 19.0932 5.80085H23.1672C23.6112 5.80085 23.9124 5.86805 23.9712 6.03605C24.0696 6.30845 23.952 7.14005 22.092 9.65525C21.7788 10.074 21.504 10.4364 21.2628 10.7532C19.5768 12.966 19.5768 13.0776 21.3624 14.7576V14.7576Z" fill="black"/>
</g>
<defs>
<clipPath id="clip0_27_81">
<rect width="24" height="24" fill="white"/>
</clipPath>
</defs>
</svg>
